<svg id="Layer_1" data-name="Layer 1" xmlns="http://www.w3.org/2000/svg" viewBox="0 0 883.36 136.24"><defs><style>.cls-1{fill:#fff;}.cls-2{fill:#fff;}</style></defs><title>logo-color</title><circle class="cls-1" cx="52.5" cy="14.2" r="14.2"/><circle class="cls-1" cx="52.5" cy="53.21" r="14.2"/><circle class="cls-1" cx="14.2" cy="53.21" r="14.2"/><circle class="cls-1" cx="90.8" cy="53.21" r="14.2"/><circle class="cls-1" cx="14.2" cy="14.2" r="8.91"/><circle class="cls-1" cx="90.8" cy="93.09" r="11.5"/><circle class="cls-1" cx="52.5" cy="93.09" r="14.2"/><circle class="cls-1" cx="123.01" cy="53.21" r="8.1"/><circle class="cls-1" cx="14.2" cy="93.09" r="8.1"/><circle class="cls-1" cx="14.2" cy="125.82" r="8.1"/><circle class="cls-1" cx="52.5" cy="125.82" r="8.1"/><circle class="cls-1" cx="90.8" cy="14.2" r="6.31"/><circle class="cls-1" cx="123.01" cy="93.09" r="6.31"/><circle class="cls-1" cx="90.8" cy="125.82" r="6.31"/><path class="cls-2" d="M178.59,46.81c6.51-10.53,16.08-15.7,28.72-15.7,27,1,40.4,18.57,40.4,53,0,33.7-15.7,50.74-47.1,51.32-31.59.19-47.48-14.94-47.48-45.38V3.73H166c8.43,0,12.64,4.4,12.64,12.82Zm0,36.18c-.19,20.49,6.7,30.83,21.25,30.83S221.67,103.48,221.67,83c-.57-19.53-7.66-29.1-21.44-29.1S179.36,63.46,178.59,83Z"/><path class="cls-2" d="M272.41,3.73c8.42,0,12.44,4.21,12.25,12.44v7.47H259.19V3.73Zm0,28.91c8.23,0,12.25,4,12.25,12.25v89H259.19V32.64Z"/><path class="cls-2" d="M372.35,133.92c-8.42-.57-12.64-4.59-12.64-12.63V69.21c-.57-10.53-6.31-15.7-17.61-15.7s-17,5.17-17.23,15.7v64.71H299V74.38c0-28.91,14.55-43.27,43.46-43.27s43.08,14.36,42.89,43.27v59.54Z"/><path class="cls-2" d="M423.09,59.06H397.62c3.06-18.76,16.27-27.95,39.63-27.95,28,0,42.13,9.19,42.7,28V93.52c0,28-16.85,40.4-44.23,42.32-24.31,1.91-41.16-9.38-41.16-31.78.57-24.32,18.19-30.83,43.84-33.32,10.92-1.34,16.47-4.6,16.47-10.15-.58-5.74-5.94-8.61-16.47-8.61C429.4,52,424.43,54.27,423.09,59.06Zm32.16,33.32V83A110.06,110.06,0,0,1,435,89.12c-10.15,1.92-15.32,6.7-15.32,14.17.57,8,4.79,11.87,12.83,11.87C446.64,115.16,455.25,106.74,455.25,92.38Z"/><path class="cls-2" d="M518.05,69.21v64.71H492.2V74.38c0-28.91,14.55-43.27,43.46-43.27,13,0,23,2.87,30.26,8.61,7.27-5.55,17.23-8.23,30.25-8.23,28.91,0,43.27,14.36,43.08,43.27v59.55H626c-8.43-.58-12.64-4.6-12.64-12.64V69.59c-.57-10.53-6.32-15.7-17.62-15.7s-17,5.17-17.23,15.7v64.33H552.9V69.21c-.58-10.53-6.32-15.7-17.62-15.7S518.24,58.68,518.05,69.21Z"/><path class="cls-2" d="M667.2,3.73c8.42,0,12.44,4.21,12.25,12.44v7.47H654V3.73Zm0,28.91c8.23,0,12.25,4,12.25,12.25v89H654V32.64Z"/><path class="cls-2" d="M740.14,136.22c-30.63,0-46.33-17.61-47.1-52.46,0-34.66,15.51-52.08,46.72-52.65,24.51,0,39.06,10.91,43.46,32.93H755.46C752.4,57.15,747,53.51,739,53.51c-13.41,0-20.11,10.15-20.11,30.25S726,114,740.14,113.82c5.94,0,11.11-2.49,15.32-7.28a11.76,11.76,0,0,1,8.62-3.63h19.14C778.63,123.59,763.69,136.8,740.14,136.22Z"/><path class="cls-2" d="M840.85,115.54c10.72,0,16.09-3.06,16.09-9.57,0-5.17-8.81-9.38-26.24-12.45-22.4-4-33.88-14-34.08-29.86,0-21.83,17.24-32.17,40.4-32.55q19.53,0,31,8.61,11.21,8.91,12.06,24.7H864c-5.94-.19-9.76-2.3-11.3-6.32-1.72-4.4-6.89-6.89-15.31-6.89-10,0-14.94,2.68-14.94,7.85s6.51,9.19,19.72,11.68c17.24,3.45,28.53,7.85,34.08,13a25.14,25.14,0,0,1,7.09,18c0,24.89-19.53,34.08-46.34,34.08-14.16,0-24.89-3.06-31.78-9-7.66-5.74-11.49-14.55-11.49-26.23h26C820.37,111.71,828.41,115.54,840.85,115.54Z"/></svg>