<svg xmlns="http://www.w3.org/2000/svg" viewBox="0 0 188.28 68.99"><title>Recurso 1</title><path d="M136.43,60.53A22,22,0,0,1,114,38.94h0a21.87,21.87,0,0,1,4.79-14.08h0l16.71-22,16.09,19.8Z" style="fill:#00b33b"/><path d="M165.38,65.21a26.25,26.25,0,1,1-9.84-48.46h0l32.74,4L176.57,51.49h0A26.05,26.05,0,0,1,165.38,65.21Z" style="fill:#8fd14a"/><g style="isolation:isolate"><g style="isolation:isolate"><path d="M11.3,61.94a9.17,9.17,0,0,1-8.57-4.78Q0,52.38,0,40.53T3.44,24.45q3.44-4.23,13-4.23h3.79v-19C20.22.42,21.15,0,23,0a24.19,24.19,0,0,1,4.58.36c1.21.23,1.84.54,1.9.9l1.34,25.2V60.67a1.65,1.65,0,0,1-.08.63c-.26.42-1.24.64-2.92.64a22.11,22.11,0,0,1-4.31-.36c-1.18-.24-1.77-.54-1.77-.91l-1.51-2.45c-1.52,1-2.6,1.71-3.23,2.14A10.82,10.82,0,0,1,11.3,61.94Zm1.14-31.72c-.71,1.6-1.06,4.32-1.06,8.13s0,6.34,0,7.55.06,2.61.11,4.19q.17,4.26,1.11,4.26c1.9,0,4.42-1,7.58-2.84V27.81H16.43A4,4,0,0,0,12.44,30.22Z" style="fill:#303c42"/><path d="M48.9,61.94q-5.85,0-8.57-3.64T37.6,45.5v-24c0-.84,1-1.27,2.89-1.27a40.51,40.51,0,0,1,5.65.4q2.76.39,2.76.87l.08,24q0,8.85,1.26,8.85,2.85,0,7.59-2.84v-30c0-.84,1-1.27,2.88-1.27a41.31,41.31,0,0,1,5.69.4c1.87.26,2.8.55,2.8.87V60.67a.87.87,0,0,1-.16.63c-.21.42-1.56.64-4.06.64s-4.05-.43-4.63-1.27L58.7,58.22Q53.16,61.94,48.9,61.94Z" style="fill:#303c42"/><path d="M75.68,40.92q0-8.61,1.5-13t4.74-6.05q3.24-1.62,9.56-1.62T101,21.84q3.24,1.62,4.74,6.05t1.5,13q0,11.85-3.4,16.43t-12.4,4.59q-9,0-12.4-4.59T75.68,40.92Zm10.75,0q0,13.28,2.52,13.27a9.42,9.42,0,0,0,5.14-1.1,3.52,3.52,0,0,0,1.18-2.29,57.15,57.15,0,0,0,.64-9.88q0-13.11-2.53-13.11-4.74,0-5.85,2.17T86.43,40.92Z" style="fill:#303c42"/></g></g></svg>